<svg viewBox="-1 -1 27 27" xmlns="http://www.w3.org/2000/svg">
<g>
<path fill="black" d="M0,7L7,7L7,0L0,0Z M6,1L6,6L1,6L1,1Z M0,11L0,14L1,14L1,16L0,16L0,17L2,17L2,15L3,15L3,16L4,16L4,14L5,14L5,13L3,13L3,14L2,14L2,13L1,13L1,11Z M0,25L7,25L7,18L0,18Z M6,19L6,24L1,24L1,19Z M1,11L2,11L2,10L1,10Z M2,5L5,5L5,2L2,2Z M2,10L3,10L3,9L4,9L4,11L5,11L5,9L8,9L8,8L2,8Z M2,12L3,12L3,11L2,11Z M2,23L5,23L5,20L2,20Z M4,17L5,17L5,16L4,16Z M5,12L6,12L6,11L5,11Z M5,16L6,16L6,15L8,15L8,14L5,14Z M6,11L7,11L7,10L6,10Z M6,13L7,13L7,12L6,12Z M6,17L8,17L8,16L6,16Z M8,1L9,1L9,0L8,0Z M8,2L8,7L9,7L9,6L10,6L10,5L11,5L11,6L12,6L12,4L13,4L13,5L14,5L14,1L17,1L17,0L13,0L13,1L12,1L12,0L10,0L10,1L9,1L9,2L10,2L10,4L9,4L9,2Z M11,2L12,2L12,3L11,3Z M8,13L9,13L9,12L8,12Z M8,18L8,23L9,23L9,20L12,20L12,19L13,19L13,17L12,17L12,18L11,18L11,19L9,19L9,18Z M9,9L10,9L10,10L11,10L11,9L12,9L12,8L9,8Z M9,10L9,12L10,12L10,10Z M9,14L10,14L10,17L12,17L12,16L13,16L13,14L12,14L12,15L11,15L11,14L12,14L12,13L9,13Z M9,18L10,18L10,17L9,17Z M9,24L10,24L10,25L13,25L13,24L14,24L14,25L16,25L16,24L15,24L15,23L13,23L13,22L12,22L12,24L11,24L11,23L9,23Z M10,7L11,7L11,6L10,6Z M10,22L11,22L11,21L10,21Z M11,10L11,12L12,12L12,13L13,13L13,11L12,11L12,10Z M12,7L13,7L13,6L12,6Z M12,21L13,21L13,20L12,20Z M13,9L14,9L14,8L13,8Z M13,11L14,11L14,13L15,13L15,12L17,12L17,10L18,10L18,8L16,8L16,11L15,11L15,10L13,10Z M13,17L14,17L14,16L13,16Z M13,20L14,20L14,21L13,21L13,22L15,22L15,21L17,21L17,22L18,22L18,21L19,21L19,22L20,22L20,21L21,21L21,22L20,22L20,23L21,23L21,24L20,24L20,25L25,25L25,17L24,17L24,16L23,16L23,18L24,18L24,19L23,19L23,21L22,21L22,20L21,20L21,19L22,19L22,17L21,17L21,16L23,16L23,15L21,15L21,14L20,14L20,16L18,16L18,15L19,15L19,14L20,14L20,13L21,13L21,12L19,12L19,13L18,13L18,12L17,12L17,16L16,16L16,14L15,14L15,15L14,15L14,16L15,16L15,18L14,18L14,19L13,19Z M17,17L20,17L20,20L17,20Z M23,23L23,22L24,22L24,24L22,24L22,23Z M14,6L14,8L16,8L16,7L15,7L15,6Z M15,4L16,4L16,3L15,3Z M16,3L17,3L17,2L16,2Z M16,5L16,7L17,7L17,5Z M16,23L17,23L17,22L16,22Z M18,7L25,7L25,0L18,0Z M24,1L24,6L19,6L19,1Z M18,19L19,19L19,18L18,18Z M18,22L18,25L19,25L19,24L20,24L20,23L19,23L19,22Z M19,10L20,10L20,11L21,11L21,9L22,9L22,13L23,13L23,12L25,12L25,11L23,11L23,8L19,8Z M20,5L23,5L23,2L20,2Z M23,15L24,15L24,14L23,14Z M24,8L24,10L25,10L25,8Z" />
</g>
<rect x="-1" y="-1" width="27" height="27" stroke="none" fill="none" />
</svg>